<svg
  width="299"
  height="137"
  viewBox="0 0 299 137"
  fill="none"
  xmlns="http://www.w3.org/2000/svg"
>
  <g filter="url(#filter0_d)">
    <path
      d="M77.399 4.19999L62.743 49H51.607L41.751 18.664L31.575 49H20.503L5.783 4.19999H16.535L26.647 35.688L37.207 4.19999H46.807L57.047 35.944L67.479 4.19999H77.399Z"
      fill="white"
    />
    <path
      d="M113.648 31.912C113.648 32.04 113.584 32.936 113.456 34.6H87.4085C87.8778 36.7333 88.9872 38.4187 90.7365 39.656C92.4858 40.8933 94.6618 41.512 97.2645 41.512C99.0565 41.512 100.635 41.256 102.001 40.744C103.409 40.1893 104.71 39.336 105.904 38.184L111.217 43.944C107.974 47.656 103.238 49.512 97.0085 49.512C93.1258 49.512 89.6912 48.7653 86.7045 47.272C83.7178 45.736 81.4138 43.624 79.7925 40.936C78.1712 38.248 77.3605 35.1973 77.3605 31.784C77.3605 28.4133 78.1498 25.384 79.7285 22.696C81.3498 19.9653 83.5472 17.8533 86.3205 16.36C89.1365 14.824 92.2725 14.056 95.7285 14.056C99.0992 14.056 102.15 14.7813 104.88 16.232C107.611 17.6827 109.745 19.7733 111.281 22.504C112.859 25.192 113.648 28.328 113.648 31.912ZM95.7925 21.608C93.5312 21.608 91.6325 22.248 90.0965 23.528C88.5605 24.808 87.6218 26.5573 87.2805 28.776H104.241C103.899 26.6 102.961 24.872 101.424 23.592C99.8885 22.2693 98.0112 21.608 95.7925 21.608Z"
      fill="white"
    />
    <path
      d="M133.246 14.056C138.579 14.056 142.675 15.336 145.534 17.896C148.393 20.4133 149.822 24.232 149.822 29.352V49H140.478V44.712C138.601 47.912 135.102 49.512 129.982 49.512C127.337 49.512 125.033 49.064 123.07 48.168C121.15 47.272 119.678 46.0347 118.654 44.456C117.63 42.8773 117.118 41.0853 117.118 39.08C117.118 35.88 118.313 33.3627 120.702 31.528C123.134 29.6933 126.867 28.776 131.902 28.776H139.838C139.838 26.6 139.177 24.936 137.854 23.784C136.531 22.5893 134.547 21.992 131.902 21.992C130.067 21.992 128.254 22.2907 126.462 22.888C124.713 23.4427 123.219 24.2107 121.982 25.192L118.398 18.216C120.275 16.8933 122.515 15.8693 125.118 15.144C127.763 14.4187 130.473 14.056 133.246 14.056ZM132.478 42.792C134.185 42.792 135.699 42.408 137.022 41.64C138.345 40.8293 139.283 39.656 139.838 38.12V34.6H132.99C128.894 34.6 126.846 35.944 126.846 38.632C126.846 39.912 127.337 40.936 128.318 41.704C129.342 42.4293 130.729 42.792 132.478 42.792Z"
      fill="white"
    />
    <path
      d="M181.066 47.336C180.085 48.0613 178.869 48.616 177.418 49C176.01 49.3413 174.517 49.512 172.938 49.512C168.842 49.512 165.663 48.4667 163.402 46.376C161.183 44.2853 160.074 41.2133 160.074 37.16V23.016H154.762V15.336H160.074V6.952H170.058V15.336H178.634V23.016H170.058V37.032C170.058 38.4827 170.421 39.6133 171.146 40.424C171.914 41.192 172.981 41.576 174.346 41.576C175.925 41.576 177.269 41.1493 178.378 40.296L181.066 47.336Z"
      fill="white"
    />
    <path
      d="M207.598 14.056C211.865 14.056 215.3 15.336 217.902 17.896C220.548 20.456 221.871 24.2533 221.871 29.288V49H211.887V30.824C211.887 28.0933 211.289 26.0667 210.095 24.744C208.9 23.3787 207.172 22.696 204.911 22.696C202.393 22.696 200.388 23.4853 198.895 25.064C197.401 26.6 196.654 28.904 196.654 31.976V49H186.671V1.51199H196.654V18.152C197.977 16.8293 199.577 15.8267 201.454 15.144C203.332 14.4187 205.38 14.056 207.598 14.056Z"
      fill="white"
    />
    <path
      d="M265.024 31.912C265.024 32.04 264.96 32.936 264.832 34.6H238.784C239.253 36.7333 240.362 38.4187 242.112 39.656C243.861 40.8933 246.037 41.512 248.639 41.512C250.431 41.512 252.01 41.256 253.375 40.744C254.783 40.1893 256.085 39.336 257.28 38.184L262.592 43.944C259.349 47.656 254.613 49.512 248.384 49.512C244.501 49.512 241.066 48.7653 238.079 47.272C235.093 45.736 232.789 43.624 231.168 40.936C229.546 38.248 228.736 35.1973 228.736 31.784C228.736 28.4133 229.525 25.384 231.104 22.696C232.725 19.9653 234.922 17.8533 237.695 16.36C240.511 14.824 243.648 14.056 247.104 14.056C250.474 14.056 253.525 14.7813 256.255 16.232C258.986 17.6827 261.12 19.7733 262.656 22.504C264.234 25.192 265.024 28.328 265.024 31.912ZM247.168 21.608C244.906 21.608 243.007 22.248 241.471 23.528C239.935 24.808 238.997 26.5573 238.655 28.776H255.616C255.274 26.6 254.336 24.872 252.799 23.592C251.263 22.2693 249.386 21.608 247.168 21.608Z"
      fill="white"
    />
    <path
      d="M281.207 19.112C282.401 17.448 284.001 16.1893 286.007 15.336C288.055 14.4827 290.401 14.056 293.047 14.056V23.272C291.937 23.1867 291.191 23.144 290.807 23.144C287.948 23.144 285.708 23.9547 284.087 25.576C282.465 27.1547 281.655 29.544 281.655 32.744V49H271.671V14.568H281.207V19.112Z"
      fill="white"
    />
    <path
      d="M38.2808 82.2H58.6328C63.4968 82.2 67.7847 83.1387 71.4967 85.016C75.2514 86.8507 78.1528 89.4533 80.2008 92.824C82.2914 96.1947 83.3368 100.12 83.3368 104.6C83.3368 109.08 82.2914 113.005 80.2008 116.376C78.1528 119.747 75.2514 122.371 71.4967 124.248C67.7847 126.083 63.4968 127 58.6328 127H38.2808V82.2ZM58.1208 118.488C62.6008 118.488 66.1634 117.251 68.8088 114.776C71.4968 112.259 72.8408 108.867 72.8408 104.6C72.8408 100.333 71.4968 96.9627 68.8088 94.488C66.1634 91.9707 62.6008 90.712 58.1208 90.712H48.6488V118.488H58.1208Z"
      fill="white"
    />
    <path
      d="M124.18 109.912C124.18 110.04 124.116 110.936 123.988 112.6H97.9398C98.4091 114.733 99.5184 116.419 101.268 117.656C103.017 118.893 105.193 119.512 107.796 119.512C109.588 119.512 111.166 119.256 112.532 118.744C113.94 118.189 115.241 117.336 116.436 116.184L121.748 121.944C118.505 125.656 113.769 127.512 107.54 127.512C103.657 127.512 100.222 126.765 97.2357 125.272C94.2491 123.736 91.9451 121.624 90.3237 118.936C88.7024 116.248 87.8918 113.197 87.8918 109.784C87.8918 106.413 88.6811 103.384 90.2598 100.696C91.8811 97.9653 94.0784 95.8533 96.8517 94.36C99.6677 92.824 102.804 92.056 106.26 92.056C109.63 92.056 112.681 92.7813 115.412 94.232C118.142 95.6827 120.276 97.7733 121.812 100.504C123.39 103.192 124.18 106.328 124.18 109.912ZM106.324 99.608C104.062 99.608 102.164 100.248 100.628 101.528C99.0917 102.808 98.1531 104.557 97.8118 106.776H114.772C114.43 104.6 113.492 102.872 111.956 101.592C110.42 100.269 108.542 99.608 106.324 99.608Z"
      fill="white"
    />
    <path
      d="M153.035 125.336C152.053 126.061 150.837 126.616 149.387 127C147.979 127.341 146.485 127.512 144.907 127.512C140.811 127.512 137.632 126.467 135.371 124.376C133.152 122.285 132.043 119.213 132.043 115.16V101.016H126.731V93.336H132.043V84.952H142.027V93.336H150.603V101.016H142.027V115.032C142.027 116.483 142.389 117.613 143.115 118.424C143.883 119.192 144.949 119.576 146.315 119.576C147.893 119.576 149.237 119.149 150.347 118.296L153.035 125.336Z"
      fill="white"
    />
    <path
      d="M172.527 92.056C177.861 92.056 181.957 93.336 184.815 95.896C187.674 98.4133 189.103 102.232 189.103 107.352V127H179.759V122.712C177.882 125.912 174.383 127.512 169.263 127.512C166.618 127.512 164.314 127.064 162.351 126.168C160.431 125.272 158.959 124.035 157.935 122.456C156.911 120.877 156.399 119.085 156.399 117.08C156.399 113.88 157.594 111.363 159.983 109.528C162.415 107.693 166.149 106.776 171.183 106.776H179.119C179.119 104.6 178.458 102.936 177.135 101.784C175.813 100.589 173.829 99.992 171.183 99.992C169.349 99.992 167.535 100.291 165.743 100.888C163.994 101.443 162.501 102.211 161.263 103.192L157.679 96.216C159.557 94.8933 161.797 93.8693 164.399 93.144C167.045 92.4187 169.754 92.056 172.527 92.056ZM171.759 120.792C173.466 120.792 174.981 120.408 176.303 119.64C177.626 118.829 178.565 117.656 179.119 116.12V112.6H172.271C168.175 112.6 166.127 113.944 166.127 116.632C166.127 117.912 166.618 118.936 167.599 119.704C168.623 120.429 170.01 120.792 171.759 120.792Z"
      fill="white"
    />
    <path
      d="M198.139 92.568H208.123V127H198.139V92.568ZM203.131 87.768C201.297 87.768 199.803 87.2347 198.651 86.168C197.499 85.1013 196.923 83.7787 196.923 82.2C196.923 80.6213 197.499 79.2987 198.651 78.232C199.803 77.1653 201.297 76.632 203.131 76.632C204.966 76.632 206.459 77.144 207.611 78.168C208.763 79.192 209.339 80.472 209.339 82.008C209.339 83.672 208.763 85.0587 207.611 86.168C206.459 87.2347 204.966 87.768 203.131 87.768Z"
      fill="white"
    />
    <path d="M217.389 79.512H227.373V127H217.389V79.512Z" fill="white" />
    <path
      d="M248.223 127.512C245.365 127.512 242.57 127.171 239.839 126.488C237.109 125.763 234.933 124.867 233.311 123.8L236.639 116.632C238.175 117.613 240.031 118.424 242.207 119.064C244.383 119.661 246.517 119.96 248.607 119.96C252.831 119.96 254.943 118.915 254.943 116.824C254.943 115.843 254.367 115.139 253.215 114.712C252.063 114.285 250.293 113.923 247.903 113.624C245.087 113.197 242.762 112.707 240.927 112.152C239.093 111.597 237.493 110.616 236.127 109.208C234.805 107.8 234.143 105.795 234.143 103.192C234.143 101.016 234.762 99.096 235.999 97.432C237.279 95.7253 239.114 94.4027 241.503 93.464C243.935 92.5253 246.794 92.056 250.079 92.056C252.511 92.056 254.922 92.3333 257.311 92.888C259.743 93.4 261.749 94.1253 263.327 95.064L259.999 102.168C256.97 100.461 253.663 99.608 250.079 99.608C247.946 99.608 246.346 99.9067 245.279 100.504C244.213 101.101 243.679 101.869 243.679 102.808C243.679 103.875 244.255 104.621 245.407 105.048C246.559 105.475 248.394 105.88 250.911 106.264C253.727 106.733 256.031 107.245 257.823 107.8C259.615 108.312 261.173 109.272 262.495 110.68C263.818 112.088 264.479 114.051 264.479 116.568C264.479 118.701 263.839 120.6 262.559 122.264C261.279 123.928 259.402 125.229 256.927 126.168C254.495 127.064 251.594 127.512 248.223 127.512Z"
      fill="white"
    />
  </g>
  <defs>
    <filter
      id="filter0_d"
      x="0.783005"
      y="0.511993"
      width="297.264"
      height="136"
      filterUnits="userSpaceOnUse"
      color-interpolation-filters="sRGB"
    >
      <feFlood flood-opacity="0" result="BackgroundImageFix" />
      <feColorMatrix
        in="SourceAlpha"
        type="matrix"
        values="0 0 0 0 0 0 0 0 0 0 0 0 0 0 0 0 0 0 127 0"
      />
      <feOffset dy="4" />
      <feGaussianBlur stdDeviation="2.5" />
      <feColorMatrix type="matrix" values="0 0 0 0 0 0 0 0 0 0 0 0 0 0 0 0 0 0 0.5 0" />
      <feBlend mode="normal" in2="BackgroundImageFix" result="effect1_dropShadow" />
      <feBlend mode="normal" in="SourceGraphic" in2="effect1_dropShadow" result="shape" />
    </filter>
  </defs>
</svg>
