<svg id="Capa_1" enable-background="new 0 0 512 512" height="512" viewBox="0 0 512 512" width="512" xmlns="http://www.w3.org/2000/svg"><g><g><path d="m346 451-90 15-90-15c24.81 0 45-20.19 45-45h90c0 24.81 20.19 45 45 45z" fill="#4d578c"/><path d="m346 451-90 15v-60h45c0 24.81 20.19 45 45 45z" fill="#333e73"/><g><path d="m0 31v390h512v-390z" fill="#4d578c"/><path d="m256 31h256v390h-256z" fill="#333e73"/><path d="m30 61h452v330h-452z" fill="#f0f7ff"/><path d="m256 61h226v330h-226z" fill="#dfe7f4"/></g><g><path d="m151 451h210v30h-210z" fill="#4d578c"/></g><path d="m256 451h105v30h-105z" fill="#333e73"/></g><g><g><path d="m301 90h30v60h-30z" fill="#fabe2c"/></g><g><path d="m361 180h60v30h-60z" fill="#fabe2c"/></g><g><path d="m354.033 218.033h30v60h-30z" fill="#fabe2c" transform="matrix(.707 -.707 .707 .707 -67.299 333.591)"/></g><g><path d="m247.967 111.967h30v60h-30z" fill="#fabe2c" transform="matrix(.707 -.707 .707 .707 -23.364 227.529)"/></g><g><path d="m339.033 126.967h60v30h-60z" fill="#fabe2c" transform="matrix(.707 -.707 .707 .707 7.701 302.526)"/></g><path d="m316 120c-41.355 0-75 33.645-75 75 0 5.565.617 11.121 1.833 16.514l91.343 56.258c33.457-8.355 56.824-38.28 56.824-72.772 0-41.355-33.645-75-75-75z" fill="#fabe2c"/><g><g><path d="m287.89 222.43c-7.09-14-18.25-25.46-31.89-32.85-10.8-5.87-23.14-9.17-36.26-9.17-35.2 0-65.3 24.17-73.86 57.14-30.8 3.27-54.88 29.4-54.88 61.05 0 33.86 27.54 61.4 61.4 61.4h139.75c37.96 0 68.85-30.89 68.85-68.85 0-39.56-33.46-71.17-73.11-68.72z" fill="#dfe7f4"/></g></g><path d="m361 291.15c0 37.96-30.89 68.85-68.85 68.85h-36.15v-170.42c13.64 7.39 24.8 18.85 31.89 32.85 39.65-2.45 73.11 29.16 73.11 68.72z" fill="#c7cfe1"/></g></g></svg>